{
	"asset":{
		"generator":"Khronos glTF Blender I/O v4.3.47",
		"version":"2.0"
	},
	"scene":0,
	"scenes":[
		{
			"name":"Scene",
			"nodes":[
				46
			]
		}
	],
	"nodes":[
		{
			"mesh":0,
			"name":"Circle_Material.002_0"
		},
		{
			"children":[
				0
			],
			"name":"Circle",
			"rotation":[
				-0.70710688829422,
				0,
				0,
				0.7071066498756409
			],
			"scale":[
				99.99999237060547,
				99.99999237060547,
				99.99999237060547
			],
			"translation":[
				0,
				-234.4349822998047,
				0
			]
		},
		{
			"mesh":1,
			"name":"Circle.001_Material.003_0"
		},
		{
			"children":[
				2
			],
			"name":"Circle.001",
			"scale":[
				57.36336898803711,
				100,
				140
			],
			"translation":[
				0,
				-234.4349822998047,
				0
			]
		},
		{
			"mesh":2,
			"name":"Circle.002_Material.006_0"
		},
		{
			"children":[
				4
			],
			"name":"Circle.002",
			"rotation":[
				-0.70710688829422,
				0,
				0,
				0.7071066498756409
			],
			"scale":[
				99.99999237060547,
				139.99998474121094,
				99.99999237060547
			],
			"translation":[
				0,
				-234.4349822998047,
				0
			]
		},
		{
			"mesh":3,
			"name":"Circle.003_Material.008_0"
		},
		{
			"mesh":4,
			"name":"Circle.003_Material.009_0"
		},
		{
			"children":[
				6,
				7
			],
			"name":"Circle.003",
			"rotation":[
				-0.70710688829422,
				0,
				0,
				0.7071066498756409
			],
			"scale":[
				99.99999237060547,
				99.99999237060547,
				99.99999237060547
			],
			"translation":[
				0,
				-234.4349822998047,
				0
			]
		},
		{
			"mesh":5,
			"name":"Circle.004_Material.010_0"
		},
		{
			"mesh":6,
			"name":"Circle.004_Material.013_0"
		},
		{
			"mesh":7,
			"name":"Circle.004_Material.014_0"
		},
		{
			"children":[
				9,
				10,
				11
			],
			"name":"Circle.004",
			"rotation":[
				-0.70710688829422,
				0,
				0,
				0.7071066498756409
			],
			"scale":[
				99.99999237060547,
				99.99999237060547,
				99.99999237060547
			],
			"translation":[
				0,
				-234.4349822998047,
				0
			]
		},
		{
			"mesh":8,
			"name":"Circle.005_Material.015_0"
		},
		{
			"mesh":9,
			"name":"Circle.005_Material.016_0"
		},
		{
			"children":[
				13,
				14
			],
			"name":"Circle.005",
			"rotation":[
				-0.70710688829422,
				0,
				0,
				0.7071066498756409
			],
			"scale":[
				99.99999237060547,
				99.99999237060547,
				99.99999237060547
			],
			"translation":[
				0,
				-234.4349822998047,
				0
			]
		},
		{
			"mesh":10,
			"name":"Circle.006_Material.019_0"
		},
		{
			"children":[
				16
			],
			"name":"Circle.006",
			"rotation":[
				-0.70710688829422,
				0,
				0,
				0.7071066498756409
			],
			"scale":[
				99.99999237060547,
				99.99999237060547,
				99.99999237060547
			],
			"translation":[
				0,
				-234.4349822998047,
				0
			]
		},
		{
			"mesh":11,
			"name":"Circle.007_Material.018_0"
		},
		{
			"mesh":12,
			"name":"Circle.007_Material.020_0"
		},
		{
			"children":[
				18,
				19
			],
			"name":"Circle.007",
			"scale":[
				99.99999237060547,
				100,
				100
			],
			"translation":[
				0,
				-234.4349822998047,
				0
			]
		},
		{
			"mesh":13,
			"name":"Circle.008_Material.022_0"
		},
		{
			"children":[
				21
			],
			"name":"Circle.008",
			"scale":[
				99.99999237060547,
				100,
				100
			],
			"translation":[
				0,
				-234.4349822998047,
				0
			]
		},
		{
			"mesh":14,
			"name":"Circle.009_Material.022_0"
		},
		{
			"children":[
				23
			],
			"name":"Circle.009",
			"scale":[
				99.99999237060547,
				100,
				100
			],
			"translation":[
				0,
				-234.4349822998047,
				0
			]
		},
		{
			"mesh":15,
			"name":"NurbsPath_Material.004_0"
		},
		{
			"children":[
				25
			],
			"name":"NurbsPath",
			"rotation":[
				-0.70710688829422,
				0,
				0,
				0.7071066498756409
			],
			"scale":[
				99.99999237060547,
				139.99998474121094,
				99.99999237060547
			],
			"translation":[
				0,
				-234.4349822998047,
				-104.75175476074219
			]
		},
		{
			"mesh":16,
			"name":"NurbsPath.001_Material.004_0"
		},
		{
			"children":[
				27
			],
			"name":"NurbsPath.001",
			"rotation":[
				-0.70710688829422,
				0,
				0,
				0.7071066498756409
			],
			"scale":[
				99.99999237060547,
				139.99998474121094,
				99.99999237060547
			],
			"translation":[
				0,
				-234.4349822998047,
				-104.75175476074219
			]
		},
		{
			"mesh":17,
			"name":"NurbsPath.002_Material.004_0"
		},
		{
			"children":[
				29
			],
			"name":"NurbsPath.002",
			"rotation":[
				-0.70710688829422,
				0,
				0,
				0.7071066498756409
			],
			"scale":[
				99.99999237060547,
				99.99999237060547,
				99.99999237060547
			],
			"translation":[
				0,
				-234.4349822998047,
				-104.75175476074219
			]
		},
		{
			"mesh":18,
			"name":"Plane_Material.005_0"
		},
		{
			"children":[
				31
			],
			"name":"Plane",
			"rotation":[
				-0.70710688829422,
				0,
				0,
				0.7071066498756409
			],
			"scale":[
				99.99999237060547,
				139.99998474121094,
				99.99998474121094
			],
			"translation":[
				0,
				-234.4349822998047,
				0
			]
		},
		{
			"mesh":19,
			"name":"Plane.001_Material.005_0"
		},
		{
			"children":[
				33
			],
			"name":"Plane.001",
			"rotation":[
				-0.70710688829422,
				0,
				0,
				0.7071066498756409
			],
			"scale":[
				99.99999237060547,
				139.99998474121094,
				99.99998474121094
			],
			"translation":[
				0,
				-234.4349822998047,
				0
			]
		},
		{
			"mesh":20,
			"name":"Plane.002_Material.011_0"
		},
		{
			"mesh":21,
			"name":"Plane.002_Material.012_0"
		},
		{
			"children":[
				35,
				36
			],
			"name":"Plane.002",
			"scale":[
				99.99999237060547,
				100,
				100
			],
			"translation":[
				0,
				457.3555603027344,
				593.8113403320312
			]
		},
		{
			"mesh":22,
			"name":"Plane.003_Material.021_0"
		},
		{
			"children":[
				38
			],
			"name":"Plane.003",
			"scale":[
				99.99999237060547,
				100,
				100
			],
			"translation":[
				0,
				-234.4349822998047,
				0
			]
		},
		{
			"mesh":23,
			"name":"Plane.004_Material.021_0"
		},
		{
			"children":[
				40
			],
			"name":"Plane.004",
			"scale":[
				99.99999237060547,
				100,
				100
			],
			"translation":[
				0,
				-234.4349822998047,
				0
			]
		},
		{
			"mesh":24,
			"name":"Spiral_Material.007_0"
		},
		{
			"children":[
				42
			],
			"name":"Spiral",
			"rotation":[
				-0.70710688829422,
				0,
				0,
				0.7071066498756409
			],
			"scale":[
				99.99999237060547,
				99.99999237060547,
				99.99999237060547
			],
			"translation":[
				0,
				-234.4349822998047,
				0
			]
		},
		{
			"children":[
				1,
				3,
				5,
				8,
				12,
				15,
				17,
				20,
				22,
				24,
				26,
				28,
				30,
				32,
				34,
				37,
				39,
				41,
				43
			],
			"name":"RootNode"
		},
		{
			"children":[
				44
			],
			"name":"141621d8cbe64527ade4d6fef00687a9.fbx",
			"rotation":[
				0.70710688829422,
				0,
				0,
				0.7071066498756409
			],
			"scale":[
				0.009999999776482582,
				0.010000000707805157,
				0.010000000707805157
			]
		},
		{
			"children":[
				45
			],
			"name":"Sketchfab_model",
			"rotation":[
				-0.70710688829422,
				0,
				0,
				0.7071066498756409
			],
			"scale":[
				0.2469310164451599,
				0.2469310462474823,
				0.2469310462474823
			]
		}
	],
	"materials":[
		{
			"doubleSided":true,
			"name":"Material.002",
			"pbrMetallicRoughness":{
				"baseColorFactor":[
					1,
					0.6172069907188416,
					0.4564110040664673,
					1
				],
				"metallicFactor":0
			}
		},
		{
			"doubleSided":true,
			"name":"Material.003",
			"pbrMetallicRoughness":{
				"baseColorTexture":{
					"index":0
				},
				"metallicFactor":0
			}
		},
		{
			"doubleSided":true,
			"name":"Material.006",
			"pbrMetallicRoughness":{
				"baseColorFactor":[
					0.8069522380828857,
					0.08865558356046677,
					0.15292614698410034,
					1
				],
				"metallicFactor":0,
				"roughnessFactor":0.9526573419570923
			}
		},
		{
			"doubleSided":true,
			"name":"Material.008",
			"pbrMetallicRoughness":{
				"baseColorFactor":[
					0.12743699550628662,
					0.1274379938840866,
					0.1274379938840866,
					1
				],
				"metallicFactor":0
			}
		},
		{
			"doubleSided":true,
			"name":"Material.009",
			"pbrMetallicRoughness":{
				"baseColorFactor":[
					0.8069522380828857,
					0.08865558356046677,
					0.15292614698410034,
					1
				],
				"metallicFactor":0
			}
		},
		{
			"doubleSided":true,
			"name":"Material.010",
			"pbrMetallicRoughness":{
				"baseColorFactor":[
					0.12743699550628662,
					0.1274379938840866,
					0.1274379938840866,
					1
				],
				"metallicFactor":0
			}
		},
		{
			"doubleSided":true,
			"name":"Material.013",
			"pbrMetallicRoughness":{
				"baseColorFactor":[
					0.8069522380828857,
					0.08865558356046677,
					0.15292614698410034,
					1
				],
				"metallicFactor":0
			}
		},
		{
			"doubleSided":true,
			"name":"Material.014",
			"pbrMetallicRoughness":{
				"baseColorFactor":[
					0.2082190066576004,
					0.2082190066576004,
					0.2082190066576004,
					1
				],
				"metallicFactor":0
			}
		},
		{
			"doubleSided":true,
			"name":"Material.015",
			"pbrMetallicRoughness":{
				"baseColorFactor":[
					0.8069522380828857,
					0.08865558356046677,
					0.15292614698410034,
					1
				],
				"metallicFactor":0
			}
		},
		{
			"doubleSided":true,
			"name":"Material.016",
			"pbrMetallicRoughness":{
				"baseColorFactor":[
					0.12743699550628662,
					0.1274379938840866,
					0.1274379938840866,
					1
				],
				"metallicFactor":0,
				"roughnessFactor":0.9715040326118469
			}
		},
		{
			"doubleSided":true,
			"name":"Material.019",
			"pbrMetallicRoughness":{
				"baseColorFactor":[
					0.07198820263147354,
					0.07198820263147354,
					0.07198820263147354,
					1
				],
				"metallicFactor":0,
				"roughnessFactor":0.9839029312133789
			}
		},
		{
			"doubleSided":true,
			"name":"Material.018",
			"pbrMetallicRoughness":{
				"baseColorFactor":[
					0.009253749623894691,
					0.009253749623894691,
					0.009253749623894691,
					1
				],
				"metallicFactor":0
			}
		},
		{
			"doubleSided":true,
			"name":"Material.020",
			"pbrMetallicRoughness":{
				"baseColorFactor":[
					0.12743699550628662,
					0.1274379938840866,
					0.1274379938840866,
					1
				],
				"metallicFactor":0,
				"roughnessFactor":0.9715040326118469
			}
		},
		{
			"doubleSided":true,
			"name":"Material.022",
			"pbrMetallicRoughness":{
				"baseColorFactor":[
					0.8006299734115601,
					0.13395799696445465,
					0.1418060064315796,
					1
				],
				"metallicFactor":0,
				"roughnessFactor":0.938226580619812
			}
		},
		{
			"doubleSided":true,
			"name":"Material.004",
			"pbrMetallicRoughness":{
				"baseColorFactor":[
					0.8103699684143066,
					0.08938300609588623,
					0.1525435745716095,
					1
				],
				"metallicFactor":0
			}
		},
		{
			"doubleSided":true,
			"name":"Material.005",
			"pbrMetallicRoughness":{
				"baseColorFactor":[
					0.1456259936094284,
					0.028490299358963966,
					0.03300970047712326,
					1
				],
				"metallicFactor":0,
				"roughnessFactor":0.9879879355430603
			}
		},
		{
			"doubleSided":true,
			"name":"Material.011",
			"pbrMetallicRoughness":{
				"baseColorFactor":[
					0.18055200576782227,
					0.18055200576782227,
					0.18055200576782227,
					1
				],
				"metallicFactor":0
			}
		},
		{
			"doubleSided":true,
			"name":"Material.012",
			"pbrMetallicRoughness":{
				"baseColorFactor":[
					0.8069522380828857,
					0.08865558356046677,
					0.15292614698410034,
					1
				],
				"metallicFactor":0
			}
		},
		{
			"doubleSided":true,
			"name":"Material.021",
			"pbrMetallicRoughness":{
				"baseColorFactor":[
					0.009253749623894691,
					0.009253749623894691,
					0.009253749623894691,
					1
				],
				"metallicFactor":0
			}
		},
		{
			"doubleSided":true,
			"name":"Material.007",
			"pbrMetallicRoughness":{
				"baseColorFactor":[
					0.8069522380828857,
					0.08865558356046677,
					0.15292614698410034,
					1
				],
				"metallicFactor":0
			}
		}
	],
	"meshes":[
		{
			"name":"Circle_Material.002_0",
			"primitives":[
				{
					"attributes":{
						"POSITION":0,
						"NORMAL":1,
						"TEXCOORD_0":2
					},
					"indices":3,
					"material":0
				}
			]
		},
		{
			"name":"Circle.001_Material.003_0",
			"primitives":[
				{
					"attributes":{
						"POSITION":4,
						"NORMAL":5,
						"TEXCOORD_0":6
					},
					"indices":7,
					"material":1
				}
			]
		},
		{
			"name":"Circle.002_Material.006_0",
			"primitives":[
				{
					"attributes":{
						"POSITION":8,
						"NORMAL":9,
						"TEXCOORD_0":10
					},
					"indices":11,
					"material":2
				}
			]
		},
		{
			"name":"Circle.003_Material.008_0",
			"primitives":[
				{
					"attributes":{
						"POSITION":12,
						"NORMAL":13,
						"TEXCOORD_0":14
					},
					"indices":15,
					"material":3
				}
			]
		},
		{
			"name":"Circle.003_Material.009_0",
			"primitives":[
				{
					"attributes":{
						"POSITION":16,
						"NORMAL":17,
						"TEXCOORD_0":18
					},
					"indices":19,
					"material":4
				}
			]
		},
		{
			"name":"Circle.004_Material.010_0",
			"primitives":[
				{
					"attributes":{
						"POSITION":20,
						"NORMAL":21,
						"TEXCOORD_0":22
					},
					"indices":23,
					"material":5
				}
			]
		},
		{
			"name":"Circle.004_Material.013_0",
			"primitives":[
				{
					"attributes":{
						"POSITION":24,
						"NORMAL":25,
						"TEXCOORD_0":26
					},
					"indices":27,
					"material":6
				}
			]
		},
		{
			"name":"Circle.004_Material.014_0",
			"primitives":[
				{
					"attributes":{
						"POSITION":28,
						"NORMAL":29,
						"TEXCOORD_0":30
					},
					"indices":31,
					"material":7
				}
			]
		},
		{
			"name":"Circle.005_Material.015_0",
			"primitives":[
				{
					"attributes":{
						"POSITION":32,
						"NORMAL":33,
						"TEXCOORD_0":34
					},
					"indices":35,
					"material":8
				}
			]
		},
		{
			"name":"Circle.005_Material.016_0",
			"primitives":[
				{
					"attributes":{
						"POSITION":36,
						"NORMAL":37,
						"TEXCOORD_0":38
					},
					"indices":19,
					"material":9
				}
			]
		},
		{
			"name":"Circle.006_Material.019_0",
			"primitives":[
				{
					"attributes":{
						"POSITION":39,
						"NORMAL":40,
						"TEXCOORD_0":41
					},
					"indices":42,
					"material":10
				}
			]
		},
		{
			"name":"Circle.007_Material.018_0",
			"primitives":[
				{
					"attributes":{
						"POSITION":43,
						"NORMAL":44,
						"TEXCOORD_0":45
					},
					"indices":46,
					"material":11
				}
			]
		},
		{
			"name":"Circle.007_Material.020_0",
			"primitives":[
				{
					"attributes":{
						"POSITION":47,
						"NORMAL":48,
						"TEXCOORD_0":49
					},
					"indices":50,
					"material":12
				}
			]
		},
		{
			"name":"Circle.008_Material.022_0",
			"primitives":[
				{
					"attributes":{
						"POSITION":51,
						"NORMAL":52,
						"TEXCOORD_0":53
					},
					"indices":54,
					"material":13
				}
			]
		},
		{
			"name":"Circle.009_Material.022_0",
			"primitives":[
				{
					"attributes":{
						"POSITION":55,
						"NORMAL":56,
						"TEXCOORD_0":57
					},
					"indices":58,
					"material":13
				}
			]
		},
		{
			"name":"NurbsPath_Material.004_0",
			"primitives":[
				{
					"attributes":{
						"POSITION":59,
						"NORMAL":60,
						"TEXCOORD_0":61
					},
					"indices":62,
					"material":14
				}
			]
		},
		{
			"name":"NurbsPath.001_Material.004_0",
			"primitives":[
				{
					"attributes":{
						"POSITION":63,
						"NORMAL":64,
						"TEXCOORD_0":65
					},
					"indices":66,
					"material":14
				}
			]
		},
		{
			"name":"NurbsPath.002_Material.004_0",
			"primitives":[
				{
					"attributes":{
						"POSITION":67,
						"NORMAL":68,
						"TEXCOORD_0":69
					},
					"indices":70,
					"material":14
				}
			]
		},
		{
			"name":"Plane_Material.005_0",
			"primitives":[
				{
					"attributes":{
						"POSITION":71,
						"NORMAL":72,
						"TEXCOORD_0":73
					},
					"indices":74,
					"material":15
				}
			]
		},
		{
			"name":"Plane.001_Material.005_0",
			"primitives":[
				{
					"attributes":{
						"POSITION":75,
						"NORMAL":76,
						"TEXCOORD_0":77
					},
					"indices":78,
					"material":15
				}
			]
		},
		{
			"name":"Plane.002_Material.011_0",
			"primitives":[
				{
					"attributes":{
						"POSITION":79,
						"NORMAL":80,
						"TEXCOORD_0":81
					},
					"indices":82,
					"material":16
				}
			]
		},
		{
			"name":"Plane.002_Material.012_0",
			"primitives":[
				{
					"attributes":{
						"POSITION":83,
						"NORMAL":84,
						"TEXCOORD_0":85
					},
					"indices":86,
					"material":17
				}
			]
		},
		{
			"name":"Plane.003_Material.021_0",
			"primitives":[
				{
					"attributes":{
						"POSITION":87,
						"NORMAL":88,
						"TEXCOORD_0":89
					},
					"indices":15,
					"material":18
				}
			]
		},
		{
			"name":"Plane.004_Material.021_0",
			"primitives":[
				{
					"attributes":{
						"POSITION":90,
						"NORMAL":91,
						"TEXCOORD_0":92
					},
					"indices":93,
					"material":18
				}
			]
		},
		{
			"name":"Spiral_Material.007_0",
			"primitives":[
				{
					"attributes":{
						"POSITION":94,
						"NORMAL":95,
						"TEXCOORD_0":96
					},
					"indices":97,
					"material":19
				}
			]
		}
	],
	"textures":[
		{
			"sampler":0,
			"source":0
		}
	],
	"images":[
		{
			"mimeType":"image/png",
			"name":"Material.003_baseColor",
			"uri":"Material_003_baseColor.png"
		}
	],
	"accessors":[
		{
			"bufferView":0,
			"componentType":5126,
			"count":3226,
			"max":[
				5.490207672119141,
				4.079746723175049,
				16.486915588378906
			],
			"min":[
				-5.490207672119141,
				-4.656116962432861,
				2.4672088623046875
			],
			"type":"VEC3"
		},
		{
			"bufferView":1,
			"componentType":5126,
			"count":3226,
			"type":"VEC3"
		},
		{
			"bufferView":2,
			"componentType":5126,
			"count":3226,
			"type":"VEC2"
		},
		{
			"bufferView":3,
			"componentType":5123,
			"count":4800,
			"type":"SCALAR"
		},
		{
			"bufferView":4,
			"componentType":5126,
			"count":32,
			"max":[
				4.240309715270996,
				11.368426322937012,
				2.864238739013672
			],
			"min":[
				-4.240309715270996,
				9.359328269958496,
				2.668851613998413
			],
			"type":"VEC3"
		},
		{
			"bufferView":5,
			"componentType":5126,
			"count":32,
			"type":"VEC3"
		},
		{
			"bufferView":6,
			"componentType":5126,
			"count":32,
			"type":"VEC2"
		},
		{
			"bufferView":7,
			"componentType":5123,
			"count":84,
			"type":"SCALAR"
		},
		{
			"bufferView":8,
			"componentType":5126,
			"count":1528,
			"max":[
				4.422034740447998,
				2.9938361644744873,
				16.724597930908203
			],
			"min":[
				-4.422034740447998,
				-2.3394856452941895,
				7.718813896179199
			],
			"type":"VEC3"
		},
		{
			"bufferView":9,
			"componentType":5126,
			"count":1528,
			"type":"VEC3"
		},
		{
			"bufferView":10,
			"componentType":5126,
			"count":1528,
			"type":"VEC2"
		},
		{
			"bufferView":11,
			"componentType":5123,
			"count":2280,
			"type":"SCALAR"
		},
		{
			"bufferView":12,
			"componentType":5126,
			"count":128,
			"max":[
				4.784670829772949,
				-0.0116876270622015,
				7.229617118835449
			],
			"min":[
				-4.784670829772949,
				-3.203467845916748,
				4.690970420837402
			],
			"type":"VEC3"
		},
		{
			"bufferView":13,
			"componentType":5126,
			"count":128,
			"type":"VEC3"
		},
		{
			"bufferView":14,
			"componentType":5126,
			"count":128,
			"type":"VEC2"
		},
		{
			"bufferView":15,
			"componentType":5123,
			"count":192,
			"type":"SCALAR"
		},
		{
			"bufferView":16,
			"componentType":5126,
			"count":256,
			"max":[
				5.230309009552002,
				0.19848883152008057,
				7.39491605758667
			],
			"min":[
				-5.230309009552002,
				-3.6397805213928223,
				4.469874382019043
			],
			"type":"VEC3"
		},
		{
			"bufferView":17,
			"componentType":5126,
			"count":256,
			"type":"VEC3"
		},
		{
			"bufferView":18,
			"componentType":5126,
			"count":256,
			"type":"VEC2"
		},
		{
			"bufferView":19,
			"componentType":5123,
			"count":384,
			"type":"SCALAR"
		},
		{
			"bufferView":20,
			"componentType":5126,
			"count":802,
			"max":[
				2.3879129886627197,
				3.090413808822632,
				9.251358985900879
			],
			"min":[
				-2.3879129886627197,
				-2.4014527797698975,
				4.191201686859131
			],
			"type":"VEC3"
		},
		{
			"bufferView":21,
			"componentType":5126,
			"count":802,
			"type":"VEC3"
		},
		{
			"bufferView":22,
			"componentType":5126,
			"count":802,
			"type":"VEC2"
		},
		{
			"bufferView":23,
			"componentType":5123,
			"count":1200,
			"type":"SCALAR"
		},
		{
			"bufferView":24,
			"componentType":5126,
			"count":352,
			"max":[
				2.7527518272399902,
				3.2917094230651855,
				7.430681228637695
			],
			"min":[
				-2.7527518272399902,
				-3.465592622756958,
				3.2891299724578857
			],
			"type":"VEC3"
		},
		{
			"bufferView":25,
			"componentType":5126,
			"count":352,
			"type":"VEC3"
		},
		{
			"bufferView":26,
			"componentType":5126,
			"count":352,
			"type":"VEC2"
		},
		{
			"bufferView":27,
			"componentType":5123,
			"count":528,
			"type":"SCALAR"
		},
		{
			"bufferView":28,
			"componentType":5126,
			"count":224,
			"max":[
				2.618469715118408,
				3.2407686710357666,
				5.273008823394775
			],
			"min":[
				-2.6184699535369873,
				-3.0755209922790527,
				3.674612045288086
			],
			"type":"VEC3"
		},
		{
			"bufferView":29,
			"componentType":5126,
			"count":224,
			"type":"VEC3"
		},
		{
			"bufferView":30,
			"componentType":5126,
			"count":224,
			"type":"VEC2"
		},
		{
			"bufferView":31,
			"componentType":5123,
			"count":336,
			"type":"SCALAR"
		},
		{
			"bufferView":32,
			"componentType":5126,
			"count":258,
			"max":[
				3.6142194271087646,
				-2.7792882919311523,
				4.702096462249756
			],
			"min":[
				-3.6142194271087646,
				-4.70908784866333,
				2.4794228076934814
			],
			"type":"VEC3"
		},
		{
			"bufferView":33,
			"componentType":5126,
			"count":258,
			"type":"VEC3"
		},
		{
			"bufferView":34,
			"componentType":5126,
			"count":258,
			"type":"VEC2"
		},
		{
			"bufferView":35,
			"componentType":5123,
			"count":384,
			"type":"SCALAR"
		},
		{
			"bufferView":36,
			"componentType":5126,
			"count":256,
			"max":[
				3.6142194271087646,
				-2.52700138092041,
				4.702096462249756
			],
			"min":[
				-3.6142194271087646,
				-4.406224727630615,
				2.462031364440918
			],
			"type":"VEC3"
		},
		{
			"bufferView":37,
			"componentType":5126,
			"count":256,
			"type":"VEC3"
		},
		{
			"bufferView":38,
			"componentType":5126,
			"count":256,
			"type":"VEC2"
		},
		{
			"bufferView":39,
			"componentType":5126,
			"count":416,
			"max":[
				2.6845052242279053,
				3.0097179412841797,
				6.615883827209473
			],
			"min":[
				-2.6845052242279053,
				-2.5128722190856934,
				2.4320833683013916
			],
			"type":"VEC3"
		},
		{
			"bufferView":40,
			"componentType":5126,
			"count":416,
			"type":"VEC3"
		},
		{
			"bufferView":41,
			"componentType":5126,
			"count":416,
			"type":"VEC2"
		},
		{
			"bufferView":42,
			"componentType":5123,
			"count":624,
			"type":"SCALAR"
		},
		{
			"bufferView":43,
			"componentType":5126,
			"count":98,
			"max":[
				0.20045067369937897,
				7.059906482696533,
				2.439417839050293
			],
			"min":[
				-0.1955518126487732,
				5.670968055725098,
				1.9590089321136475
			],
			"type":"VEC3"
		},
		{
			"bufferView":44,
			"componentType":5126,
			"count":98,
			"type":"VEC3"
		},
		{
			"bufferView":45,
			"componentType":5126,
			"count":98,
			"type":"VEC2"
		},
		{
			"bufferView":46,
			"componentType":5123,
			"count":144,
			"type":"SCALAR"
		},
		{
			"bufferView":47,
			"componentType":5126,
			"count":106,
			"max":[
				0.15501466393470764,
				7.026269912719727,
				2.43717622756958
			],
			"min":[
				-0.15011274814605713,
				5.7163591384887695,
				1.9895679950714111
			],
			"type":"VEC3"
		},
		{
			"bufferView":48,
			"componentType":5126,
			"count":106,
			"type":"VEC3"
		},
		{
			"bufferView":49,
			"componentType":5126,
			"count":106,
			"type":"VEC2"
		},
		{
			"bufferView":50,
			"componentType":5123,
			"count":144,
			"type":"SCALAR"
		},
		{
			"bufferView":51,
			"componentType":5126,
			"count":160,
			"max":[
				0.9648659229278564,
				6.646146297454834,
				2.163905143737793
			],
			"min":[
				-0.9648659229278564,
				6.560821056365967,
				2.115260124206543
			],
			"type":"VEC3"
		},
		{
			"bufferView":52,
			"componentType":5126,
			"count":160,
			"type":"VEC3"
		},
		{
			"bufferView":53,
			"componentType":5126,
			"count":160,
			"type":"VEC2"
		},
		{
			"bufferView":54,
			"componentType":5123,
			"count":192,
			"type":"SCALAR"
		},
		{
			"bufferView":55,
			"componentType":5126,
			"count":362,
			"max":[
				4.1229071617126465,
				6.798023700714111,
				2.5965492725372314
			],
			"min":[
				-4.1229071617126465,
				6.58743953704834,
				2.2383275032043457
			],
			"type":"VEC3"
		},
		{
			"bufferView":56,
			"componentType":5126,
			"count":362,
			"type":"VEC3"
		},
		{
			"bufferView":57,
			"componentType":5126,
			"count":362,
			"type":"VEC2"
		},
		{
			"bufferView":58,
			"componentType":5123,
			"count":384,
			"type":"SCALAR"
		},
		{
			"bufferView":59,
			"componentType":5126,
			"count":282,
			"max":[
				5.456840991973877,
				-2.0161337852478027,
				16.29323387145996
			],
			"min":[
				-5.631280899047852,
				-4.238261699676514,
				9.29889965057373
			],
			"type":"VEC3"
		},
		{
			"bufferView":60,
			"componentType":5126,
			"count":282,
			"type":"VEC3"
		},
		{
			"bufferView":61,
			"componentType":5126,
			"count":282,
			"type":"VEC2"
		},
		{
			"bufferView":62,
			"componentType":5123,
			"count":384,
			"type":"SCALAR"
		},
		{
			"bufferView":63,
			"componentType":5126,
			"count":140,
			"max":[
				4.103148460388184,
				-1.0031235218048096,
				12.69427490234375
			],
			"min":[
				-4.103148460388184,
				-3.0005643367767334,
				7.032520771026611
			],
			"type":"VEC3"
		},
		{
			"bufferView":64,
			"componentType":5126,
			"count":140,
			"type":"VEC3"
		},
		{
			"bufferView":65,
			"componentType":5126,
			"count":140,
			"type":"VEC2"
		},
		{
			"bufferView":66,
			"componentType":5123,
			"count":192,
			"type":"SCALAR"
		},
		{
			"bufferView":67,
			"componentType":5126,
			"count":72,
			"max":[
				0.5882578492164612,
				-1.512533187866211,
				17.809410095214844
			],
			"min":[
				-0.38146066665649414,
				-1.8125331401824951,
				16.486936569213867
			],
			"type":"VEC3"
		},
		{
			"bufferView":68,
			"componentType":5126,
			"count":72,
			"type":"VEC3"
		},
		{
			"bufferView":69,
			"componentType":5126,
			"count":72,
			"type":"VEC2"
		},
		{
			"bufferView":70,
			"componentType":5123,
			"count":108,
			"type":"SCALAR"
		},
		{
			"bufferView":71,
			"componentType":5126,
			"count":572,
			"max":[
				2.8608367443084717,
				-2.650303602218628,
				12.299798965454102
			],
			"min":[
				-2.8608367443084717,
				-3.028108596801758,
				10.110119819641113
			],
			"type":"VEC3"
		},
		{
			"bufferView":72,
			"componentType":5126,
			"count":572,
			"type":"VEC3"
		},
		{
			"bufferView":73,
			"componentType":5126,
			"count":572,
			"type":"VEC2"
		},
		{
			"bufferView":74,
			"componentType":5123,
			"count":816,
			"type":"SCALAR"
		},
		{
			"bufferView":75,
			"componentType":5126,
			"count":192,
			"max":[
				0.6514116525650024,
				-2.554570436477661,
				9.042189598083496
			],
			"min":[
				-0.6514116525650024,
				-2.5545706748962402,
				8.740249633789062
			],
			"type":"VEC3"
		},
		{
			"bufferView":76,
			"componentType":5126,
			"count":192,
			"type":"VEC3"
		},
		{
			"bufferView":77,
			"componentType":5126,
			"count":192,
			"type":"VEC2"
		},
		{
			"bufferView":78,
			"componentType":5123,
			"count":288,
			"type":"SCALAR"
		},
		{
			"bufferView":79,
			"componentType":5126,
			"count":192,
			"max":[
				1.9179456233978271,
				1.4030040502548218,
				-3.657280445098877
			],
			"min":[
				-1.9179456233978271,
				0.07320231199264526,
				-5.287637233734131
			],
			"type":"VEC3"
		},
		{
			"bufferView":80,
			"componentType":5126,
			"count":192,
			"type":"VEC3"
		},
		{
			"bufferView":81,
			"componentType":5126,
			"count":192,
			"type":"VEC2"
		},
		{
			"bufferView":82,
			"componentType":5123,
			"count":264,
			"type":"SCALAR"
		},
		{
			"bufferView":83,
			"componentType":5126,
			"count":64,
			"max":[
				1.8130803108215332,
				1.4030040502548218,
				-3.7185959815979004
			],
			"min":[
				-1.8130803108215332,
				0.12220227718353271,
				-5.287637233734131
			],
			"type":"VEC3"
		},
		{
			"bufferView":84,
			"componentType":5126,
			"count":64,
			"type":"VEC3"
		},
		{
			"bufferView":85,
			"componentType":5126,
			"count":64,
			"type":"VEC2"
		},
		{
			"bufferView":86,
			"componentType":5123,
			"count":96,
			"type":"SCALAR"
		},
		{
			"bufferView":87,
			"componentType":5126,
			"count":128,
			"max":[
				1.395676851272583,
				6.864596366882324,
				2.4931178092956543
			],
			"min":[
				-1.395676851272583,
				5.853504180908203,
				1.8920429944992065
			],
			"type":"VEC3"
		},
		{
			"bufferView":88,
			"componentType":5126,
			"count":128,
			"type":"VEC3"
		},
		{
			"bufferView":89,
			"componentType":5126,
			"count":128,
			"type":"VEC2"
		},
		{
			"bufferView":90,
			"componentType":5126,
			"count":144,
			"max":[
				4.5246901512146,
				6.898176193237305,
				2.7754433155059814
			],
			"min":[
				-4.5246901512146,
				6.5187201499938965,
				1.798844575881958
			],
			"type":"VEC3"
		},
		{
			"bufferView":91,
			"componentType":5126,
			"count":144,
			"type":"VEC3"
		},
		{
			"bufferView":92,
			"componentType":5126,
			"count":144,
			"type":"VEC2"
		},
		{
			"bufferView":93,
			"componentType":5123,
			"count":192,
			"type":"SCALAR"
		},
		{
			"bufferView":94,
			"componentType":5126,
			"count":3392,
			"max":[
				7.313095569610596,
				2.477975845336914,
				15.355621337890625
			],
			"min":[
				-7.313095569610596,
				-1.6793935298919678,
				8.316044807434082
			],
			"type":"VEC3"
		},
		{
			"bufferView":95,
			"componentType":5126,
			"count":3392,
			"type":"VEC3"
		},
		{
			"bufferView":96,
			"componentType":5126,
			"count":3392,
			"type":"VEC2"
		},
		{
			"bufferView":97,
			"componentType":5123,
			"count":4704,
			"type":"SCALAR"
		}
	],
	"bufferViews":[
		{
			"buffer":0,
			"byteLength":38712,
			"byteOffset":0,
			"target":34962
		},
		{
			"buffer":0,
			"byteLength":38712,
			"byteOffset":38712,
			"target":34962
		},
		{
			"buffer":0,
			"byteLength":25808,
			"byteOffset":77424,
			"target":34962
		},
		{
			"buffer":0,
			"byteLength":9600,
			"byteOffset":103232,
			"target":34963
		},
		{
			"buffer":0,
			"byteLength":384,
			"byteOffset":112832,
			"target":34962
		},
		{
			"buffer":0,
			"byteLength":384,
			"byteOffset":113216,
			"target":34962
		},
		{
			"buffer":0,
			"byteLength":256,
			"byteOffset":113600,
			"target":34962
		},
		{
			"buffer":0,
			"byteLength":168,
			"byteOffset":113856,
			"target":34963
		},
		{
			"buffer":0,
			"byteLength":18336,
			"byteOffset":114024,
			"target":34962
		},
		{
			"buffer":0,
			"byteLength":18336,
			"byteOffset":132360,
			"target":34962
		},
		{
			"buffer":0,
			"byteLength":12224,
			"byteOffset":150696,
			"target":34962
		},
		{
			"buffer":0,
			"byteLength":4560,
			"byteOffset":162920,
			"target":34963
		},
		{
			"buffer":0,
			"byteLength":1536,
			"byteOffset":167480,
			"target":34962
		},
		{
			"buffer":0,
			"byteLength":1536,
			"byteOffset":169016,
			"target":34962
		},
		{
			"buffer":0,
			"byteLength":1024,
			"byteOffset":170552,
			"target":34962
		},
		{
			"buffer":0,
			"byteLength":384,
			"byteOffset":171576,
			"target":34963
		},
		{
			"buffer":0,
			"byteLength":3072,
			"byteOffset":171960,
			"target":34962
		},
		{
			"buffer":0,
			"byteLength":3072,
			"byteOffset":175032,
			"target":34962
		},
		{
			"buffer":0,
			"byteLength":2048,
			"byteOffset":178104,
			"target":34962
		},
		{
			"buffer":0,
			"byteLength":768,
			"byteOffset":180152,
			"target":34963
		},
		{
			"buffer":0,
			"byteLength":9624,
			"byteOffset":180920,
			"target":34962
		},
		{
			"buffer":0,
			"byteLength":9624,
			"byteOffset":190544,
			"target":34962
		},
		{
			"buffer":0,
			"byteLength":6416,
			"byteOffset":200168,
			"target":34962
		},
		{
			"buffer":0,
			"byteLength":2400,
			"byteOffset":206584,
			"target":34963
		},
		{
			"buffer":0,
			"byteLength":4224,
			"byteOffset":208984,
			"target":34962
		},
		{
			"buffer":0,
			"byteLength":4224,
			"byteOffset":213208,
			"target":34962
		},
		{
			"buffer":0,
			"byteLength":2816,
			"byteOffset":217432,
			"target":34962
		},
		{
			"buffer":0,
			"byteLength":1056,
			"byteOffset":220248,
			"target":34963
		},
		{
			"buffer":0,
			"byteLength":2688,
			"byteOffset":221304,
			"target":34962
		},
		{
			"buffer":0,
			"byteLength":2688,
			"byteOffset":223992,
			"target":34962
		},
		{
			"buffer":0,
			"byteLength":1792,
			"byteOffset":226680,
			"target":34962
		},
		{
			"buffer":0,
			"byteLength":672,
			"byteOffset":228472,
			"target":34963
		},
		{
			"buffer":0,
			"byteLength":3096,
			"byteOffset":229144,
			"target":34962
		},
		{
			"buffer":0,
			"byteLength":3096,
			"byteOffset":232240,
			"target":34962
		},
		{
			"buffer":0,
			"byteLength":2064,
			"byteOffset":235336,
			"target":34962
		},
		{
			"buffer":0,
			"byteLength":768,
			"byteOffset":237400,
			"target":34963
		},
		{
			"buffer":0,
			"byteLength":3072,
			"byteOffset":238168,
			"target":34962
		},
		{
			"buffer":0,
			"byteLength":3072,
			"byteOffset":241240,
			"target":34962
		},
		{
			"buffer":0,
			"byteLength":2048,
			"byteOffset":244312,
			"target":34962
		},
		{
			"buffer":0,
			"byteLength":4992,
			"byteOffset":246360,
			"target":34962
		},
		{
			"buffer":0,
			"byteLength":4992,
			"byteOffset":251352,
			"target":34962
		},
		{
			"buffer":0,
			"byteLength":3328,
			"byteOffset":256344,
			"target":34962
		},
		{
			"buffer":0,
			"byteLength":1248,
			"byteOffset":259672,
			"target":34963
		},
		{
			"buffer":0,
			"byteLength":1176,
			"byteOffset":260920,
			"target":34962
		},
		{
			"buffer":0,
			"byteLength":1176,
			"byteOffset":262096,
			"target":34962
		},
		{
			"buffer":0,
			"byteLength":784,
			"byteOffset":263272,
			"target":34962
		},
		{
			"buffer":0,
			"byteLength":288,
			"byteOffset":264056,
			"target":34963
		},
		{
			"buffer":0,
			"byteLength":1272,
			"byteOffset":264344,
			"target":34962
		},
		{
			"buffer":0,
			"byteLength":1272,
			"byteOffset":265616,
			"target":34962
		},
		{
			"buffer":0,
			"byteLength":848,
			"byteOffset":266888,
			"target":34962
		},
		{
			"buffer":0,
			"byteLength":288,
			"byteOffset":267736,
			"target":34963
		},
		{
			"buffer":0,
			"byteLength":1920,
			"byteOffset":268024,
			"target":34962
		},
		{
			"buffer":0,
			"byteLength":1920,
			"byteOffset":269944,
			"target":34962
		},
		{
			"buffer":0,
			"byteLength":1280,
			"byteOffset":271864,
			"target":34962
		},
		{
			"buffer":0,
			"byteLength":384,
			"byteOffset":273144,
			"target":34963
		},
		{
			"buffer":0,
			"byteLength":4344,
			"byteOffset":273528,
			"target":34962
		},
		{
			"buffer":0,
			"byteLength":4344,
			"byteOffset":277872,
			"target":34962
		},
		{
			"buffer":0,
			"byteLength":2896,
			"byteOffset":282216,
			"target":34962
		},
		{
			"buffer":0,
			"byteLength":768,
			"byteOffset":285112,
			"target":34963
		},
		{
			"buffer":0,
			"byteLength":3384,
			"byteOffset":285880,
			"target":34962
		},
		{
			"buffer":0,
			"byteLength":3384,
			"byteOffset":289264,
			"target":34962
		},
		{
			"buffer":0,
			"byteLength":2256,
			"byteOffset":292648,
			"target":34962
		},
		{
			"buffer":0,
			"byteLength":768,
			"byteOffset":294904,
			"target":34963
		},
		{
			"buffer":0,
			"byteLength":1680,
			"byteOffset":295672,
			"target":34962
		},
		{
			"buffer":0,
			"byteLength":1680,
			"byteOffset":297352,
			"target":34962
		},
		{
			"buffer":0,
			"byteLength":1120,
			"byteOffset":299032,
			"target":34962
		},
		{
			"buffer":0,
			"byteLength":384,
			"byteOffset":300152,
			"target":34963
		},
		{
			"buffer":0,
			"byteLength":864,
			"byteOffset":300536,
			"target":34962
		},
		{
			"buffer":0,
			"byteLength":864,
			"byteOffset":301400,
			"target":34962
		},
		{
			"buffer":0,
			"byteLength":576,
			"byteOffset":302264,
			"target":34962
		},
		{
			"buffer":0,
			"byteLength":216,
			"byteOffset":302840,
			"target":34963
		},
		{
			"buffer":0,
			"byteLength":6864,
			"byteOffset":303056,
			"target":34962
		},
		{
			"buffer":0,
			"byteLength":6864,
			"byteOffset":309920,
			"target":34962
		},
		{
			"buffer":0,
			"byteLength":4576,
			"byteOffset":316784,
			"target":34962
		},
		{
			"buffer":0,
			"byteLength":1632,
			"byteOffset":321360,
			"target":34963
		},
		{
			"buffer":0,
			"byteLength":2304,
			"byteOffset":322992,
			"target":34962
		},
		{
			"buffer":0,
			"byteLength":2304,
			"byteOffset":325296,
			"target":34962
		},
		{
			"buffer":0,
			"byteLength":1536,
			"byteOffset":327600,
			"target":34962
		},
		{
			"buffer":0,
			"byteLength":576,
			"byteOffset":329136,
			"target":34963
		},
		{
			"buffer":0,
			"byteLength":2304,
			"byteOffset":329712,
			"target":34962
		},
		{
			"buffer":0,
			"byteLength":2304,
			"byteOffset":332016,
			"target":34962
		},
		{
			"buffer":0,
			"byteLength":1536,
			"byteOffset":334320,
			"target":34962
		},
		{
			"buffer":0,
			"byteLength":528,
			"byteOffset":335856,
			"target":34963
		},
		{
			"buffer":0,
			"byteLength":768,
			"byteOffset":336384,
			"target":34962
		},
		{
			"buffer":0,
			"byteLength":768,
			"byteOffset":337152,
			"target":34962
		},
		{
			"buffer":0,
			"byteLength":512,
			"byteOffset":337920,
			"target":34962
		},
		{
			"buffer":0,
			"byteLength":192,
			"byteOffset":338432,
			"target":34963
		},
		{
			"buffer":0,
			"byteLength":1536,
			"byteOffset":338624,
			"target":34962
		},
		{
			"buffer":0,
			"byteLength":1536,
			"byteOffset":340160,
			"target":34962
		},
		{
			"buffer":0,
			"byteLength":1024,
			"byteOffset":341696,
			"target":34962
		},
		{
			"buffer":0,
			"byteLength":1728,
			"byteOffset":342720,
			"target":34962
		},
		{
			"buffer":0,
			"byteLength":1728,
			"byteOffset":344448,
			"target":34962
		},
		{
			"buffer":0,
			"byteLength":1152,
			"byteOffset":346176,
			"target":34962
		},
		{
			"buffer":0,
			"byteLength":384,
			"byteOffset":347328,
			"target":34963
		},
		{
			"buffer":0,
			"byteLength":40704,
			"byteOffset":347712,
			"target":34962
		},
		{
			"buffer":0,
			"byteLength":40704,
			"byteOffset":388416,
			"target":34962
		},
		{
			"buffer":0,
			"byteLength":27136,
			"byteOffset":429120,
			"target":34962
		},
		{
			"buffer":0,
			"byteLength":9408,
			"byteOffset":456256,
			"target":34963
		}
	],
	"samplers":[
		{
			"magFilter":9729,
			"minFilter":9987
		}
	],
	"buffers":[
		{
			"byteLength":465664,
			"uri":"scene.bin"
		}
	]
}
